<mxfile host="app.diagrams.net" modified="2024-05-03T15:08:01.422Z" agent="Mozilla/5.0 (Macintosh; Intel Mac OS X 10_15_7) AppleWebKit/537.36 (KHTML, like Gecko) Chrome/124.0.0.0 Safari/537.36" version="24.2.5" etag="wmousWOhUQNNF9Hlt0i4" type="github">
  <diagram name="Page-1" id="heM5yTjZDgoabw8BkPZ9">
    <mxGraphModel>
      <root>
        <mxCell id="0" />
        <mxCell id="1" parent="0" />
      </root>
    </mxGraphModel>
  </diagram>
</mxfile>
